# xmcd
#
# Track frame offsets:
#	150
#	15918
#	33490
#	50542
#	69419
#	82683
#	94413
#	107313
#	120967
#	139072
#	149296
#
# Disc length: 2210 seconds
#
# Revision: 0
# Processed by: cddbd v1.5.1PL0 Copyright (c) Steve Scherf et al.
# Submitted via: dBpowerAMP V4.0
#
DISCID=8008a00b
DTITLE=Mark Holder - My Black Name
DYEAR=2000
DGENRE=Blues 
TTITLE0=Preachin' Blues
TTITLE1=1000 Years
TTITLE2=My Black Name
TTITLE3=No Doctor
TTITLE4=Black Mattie
TTITLE5=Worried Blues
TTITLE6=Katie Mae
TTITLE7=Levee Camp Moan
TTITLE8=44
TTITLE9=Gertrude
TTITLE10=Coffin Lid
EXTD=Digisound/CD Baby
EXTT0=
EXTT1=
EXTT2=
EXTT3=
EXTT4=
EXTT5=
EXTT6=
EXTT7=
EXTT8=
EXTT9=
EXTT10=
PLAYORDER=
